<?xml version="1.0" standalone="no"?>
<!DOCTYPE svg PUBLIC "-//W3C//DTD SVG 20010904//EN"
 "http://www.w3.org/TR/2001/REC-SVG-20010904/DTD/svg10.dtd">
<svg version="1.0" xmlns="http://www.w3.org/2000/svg"
 width="160.000000pt" height="160.000000pt" viewBox="0 0 160.000000 160.000000"
 preserveAspectRatio="xMidYMid meet">
<metadata>
Created by potrace 1.16, written by Peter Selinger 2001-2019
</metadata>
<g transform="translate(0.000000,160.000000) scale(0.100000,-0.100000)"
fill="#000000" stroke="none">
<path d="M614 1485 c-85 -27 -137 -75 -190 -178 -62 -121 -77 -225 -53 -365 7
-41 8 -67 2 -71 -36 -23 -34 -83 6 -172 11 -24 21 -54 21 -66 0 -28 37 -63 67
-63 13 0 27 -9 34 -22 6 -13 26 -45 45 -73 35 -52 57 -145 47 -197 -10 -51 89
-224 148 -260 20 -12 49 -18 92 -18 97 0 133 9 145 35 6 13 26 28 46 35 30 10
38 20 65 85 30 71 31 79 31 227 0 169 14 245 45 240 13 -3 15 1 10 18 -4 12
-4 43 0 70 5 36 10 47 21 43 9 -3 19 7 29 28 10 25 15 29 15 14 l1 -20 9 20
c25 57 -1 148 -32 117 -27 -27 -35 -13 -25 43 23 124 -29 299 -120 408 -42 50
-115 100 -191 130 -61 24 -178 21 -268 -8z m283 -189 c4 -8 17 -15 28 -18 12
-2 24 -16 30 -34 13 -41 33 -64 56 -64 24 0 48 -37 56 -85 l6 -37 -26 17 c-24
15 -34 16 -112 4 -47 -7 -85 -16 -85 -20 0 -4 -16 -13 -36 -19 -32 -11 -41
-10 -83 14 -37 20 -56 24 -85 19 l-38 -6 5 60 c3 33 2 65 -3 73 -14 23 9 67
43 81 36 15 79 17 160 5 49 -7 57 -6 57 8 0 20 16 21 27 2z m-73 -341 c18 -43
22 -46 89 -66 74 -22 126 -20 147 6 7 8 17 12 22 9 5 -3 12 3 15 15 3 12 9 21
13 21 5 0 10 10 12 23 2 12 10 -14 19 -58 10 -49 12 -85 7 -92 -5 -6 -9 -29
-10 -51 l0 -39 -41 8 c-23 4 -43 12 -45 18 -2 6 -10 11 -18 11 -8 0 -33 10
-56 21 -35 18 -43 19 -52 7 -8 -10 -29 -12 -86 -8 -41 3 -80 9 -87 13 -12 8
-11 72 1 84 3 3 6 23 6 42 0 34 22 81 39 81 4 0 15 -20 25 -45z"/>
</g>
</svg>
